Coordinates
version=1
nRows=6
nColumns=34
inDegrees=yes

Units are S.I. units (second, meters, Newtons, ...)
If the header above contains a line with 'inDegrees', this indicates whether rotational values are in degrees (yes) or radians (no).

endheader
time	pelvis_tilt	pelvis_list	pelvis_rotation	pelvis_tx	pelvis_ty	pelvis_tz	hip_flexion_r	hip_adduction_r	hip_rotation_r	knee_angle_r	ankle_angle_r	subtalar_angle_r	mtp_angle_r	hip_flexion_l	hip_adduction_l	hip_rotation_l	knee_angle_l	ankle_angle_l	subtalar_angle_l	mtp_angle_l	lumbar_extension	lumbar_bending	lumbar_rotation	arm_flex_r	arm_add_r	arm_rot_r	elbow_flex_r	pro_sup_r	arm_flex_l	arm_add_l	arm_rot_l	elbow_flex_l	pro_sup_l
      4.15000000	     -7.12825242	     -0.96130298	      4.10635507	      1.78437172	      0.93021247	     -0.01904913	     -1.16495184	     -5.15160535	    -11.99450273	      6.55494838	    -19.93044918	     -6.87162573	      0.00000000	      1.70708409	     -6.21334538	      3.38072398	      4.73982080	    -17.79357243	     -3.22648584	      0.00000000	     -1.46088047	     -5.33246449	      7.40047156	    129.33260755	     -6.02603776	     31.25887023	     48.08424109	     82.12269958	    104.38509786	      7.98017407	     30.54495856	     95.24817161	     96.96843590
      4.16666670	     -7.08659215	     -0.83921853	      4.04783257	      1.78748456	      0.92710372	     -0.02186766	     -1.33631566	     -5.55637998	    -11.44936929	      6.78660439	    -20.00176398	     -7.45523108	      0.00000000	      1.65805285	     -5.84808118	      3.54844261	      5.21734606	    -17.58055629	     -3.78147279	      0.00000000	     -1.41650492	     -5.24888348	      7.42419344	    123.50067929	     -8.17774819	     30.98354970	     54.33473832	     83.82830991	     98.92364383	      6.81717931	     31.19138724	     97.09780213	     96.48772374
      4.18333330	     -7.11590243	     -0.69468006	      4.04472990	      1.79088685	      0.92470369	     -0.02264496	     -1.41594447	     -5.90654509	    -11.06538732	      7.11921368	    -19.90993145	     -8.13305656	      0.00000000	      1.70334715	     -5.49844824	      3.88430892	      5.80791086	    -17.12167356	     -4.10712497	      0.00000000	     -1.50472130	     -4.80508571	      7.14400855	    118.00136441	     -9.35868500	     31.87533135	     59.10763617	     84.68107057	     93.17984552	      4.63660833	     31.44223646	    100.40829305	     96.22369134
      4.20000000	     -7.24449756	     -0.60511927	      3.98380532	      1.79460412	      0.92386081	     -0.02229203	     -1.39159529	     -6.08261760	    -10.68867327	      7.42621038	    -19.76784700	     -8.94981752	      0.00000000	      1.84555344	     -5.30433799	      4.07730505	      6.48654787	    -16.68979292	     -4.35416893	      0.00000000	     -1.43083552	     -4.43399478	      6.97429712	    111.56167994	    -10.68807522	     32.12871728	     63.83989702	     85.44799005	     87.03024412	      2.45106666	     31.90830502	    103.25436162	     95.95200124
      4.21666670	     -7.36530402	     -0.54175538	      3.89052238	      1.79871623	      0.92282341	     -0.02235965	     -1.43513478	     -6.17040637	    -10.38523789	      7.62209070	    -19.69150061	     -9.71691892	      0.00000000	      1.92640233	     -5.21131668	      4.27840753	      7.11699242	    -16.25624617	     -4.50508040	      0.00000000	     -1.33400536	     -4.11855187	      6.66126472	    104.26020697	    -11.95263686	     32.16751868	     67.96682230	     86.10833351	     80.28901230	      0.10487239	     32.44960900	    105.65331487	     95.68899476
      4.23333330	     -7.54636181	     -0.51110944	      3.69946080	      1.80323404	      0.92055656	     -0.02378092	     -1.44156039	     -6.22733447	    -10.00631177	      7.76584149	    -19.70529405	    -10.47908342	      0.00000000	      2.00046981	     -5.15464468	      4.57098149	      7.66371065	    -15.86038438	     -4.74550138	      0.00000000	     -1.15187284	     -3.91825895	      6.28973227	     96.35209972	    -13.33755465	     32.00350011	     71.26163025	     86.74826747	     73.07013979	     -2.07697313	     33.17045527	    107.31525719	     95.34648058
